<svg width="27" height="27" viewBox="0 0 27 27" fill="none" xmlns="http://www.w3.org/2000/svg">
<path d="M24.4359 12.6564H18.4908C18.3137 11.6208 17.8196 10.6656 17.0767 9.92265C16.3338 9.17971 15.3786 8.68562 14.3429 8.50854V2.56348C16.9527 2.76507 19.4044 3.89317 21.2553 5.74406C23.1062 7.59495 24.2343 10.0466 24.4359 12.6564ZM24.4359 14.3439C24.2343 16.9537 23.1062 19.4054 21.2553 21.2563C19.4044 23.1072 16.9527 24.2353 14.3429 24.4369V18.4918C15.3786 18.3147 16.3338 17.8206 17.0767 17.0777C17.8196 16.3347 18.3137 15.3796 18.4908 14.3439H24.4359ZM2.56419 14.3439H8.50925C8.68623 15.3793 9.18007 16.3343 9.92268 17.0772C10.6653 17.8202 11.6201 18.3144 12.6554 18.4918V24.4369C10.0457 24.2353 7.59397 23.1072 5.74308 21.2563C3.89219 19.4054 2.7641 16.9537 2.5625 14.3439H2.56419ZM2.56419 12.6564C2.76573 10.0469 3.89359 7.59543 5.74413 5.74458C7.59467 3.89372 10.046 2.76546 12.6554 2.56348V8.50854C11.6198 8.68562 10.6646 9.17971 9.92167 9.92265C9.17873 10.6656 8.68464 11.6208 8.50756 12.6564H2.5625H2.56419Z" fill="black"/>
</svg>
