<svg xmlns="http://www.w3.org/2000/svg" width="24" height="24" fill="none"><path fill="#000" fill-rule="evenodd" d="M2.632 9.161A.5.5 0 0 1 3 9h18a.5.5 0 0 1 .498.542l-.847 10.166A2.5 2.5 0 0 1 18.16 22H5.84a2.5 2.5 0 0 1-2.491-2.292L2.502 9.542a.5.5 0 0 1 .13-.38Zm.911.839.802 9.625A1.5 1.5 0 0 0 5.84 21h12.32a1.5 1.5 0 0 0 1.495-1.375L20.457 10H3.543Z" clip-rule="evenodd"/><path fill="#000" fill-rule="evenodd" d="M7.5 7.5A2.5 2.5 0 0 1 10 5h4a2.5 2.5 0 0 1 2.5 2.5v2a.5.5 0 0 1-.5.5H8a.5.5 0 0 1-.5-.5v-2ZM10 6a1.5 1.5 0 0 0-1.5 1.5V9h7V7.5A1.5 1.5 0 0 0 14 6h-4Z" clip-rule="evenodd"/><path fill="#000" fill-rule="evenodd" d="M9 5a3 3 0 1 1 6 0v.5a.5.5 0 0 1-.5.5h-5a.5.5 0 0 1-.5-.5V5zm3-2a2 2 0 0 0-2 2h4a2 2 0 0 0-2-2zm6.32 1.116 3 2.5A.5.5 0 0 1 21.5 7v2.5h-1V7.234l-2.82-2.35.64-.768zm-12.64 0-3 2.5A.5.5 0 0 0 2.5 7v2.5h1V7.234l2.82-2.35-.64-.768z" clip-rule="evenodd"/></svg>