<svg width="30" height="23" viewBox="0 0 30 23" fill="none" xmlns="http://www.w3.org/2000/svg">
<path d="M6.78052 21.1558C6.78052 21.4127 6.67846 21.6591 6.49678 21.8408C6.3151 22.0225 6.0687 22.1245 5.81177 22.1245C5.55484 22.1245 5.30844 22.0225 5.12676 21.8408C4.94509 21.6591 4.84302 21.4127 4.84302 21.1558V4.11933L2.62265 6.34165C2.53258 6.43172 2.42565 6.50316 2.30796 6.55191C2.19028 6.60066 2.06415 6.62574 1.93677 6.62574C1.67952 6.62574 1.4328 6.52355 1.2509 6.34165C1.06899 6.15974 0.966797 5.91302 0.966797 5.65577C0.966797 5.39852 1.06899 5.1518 1.2509 4.96989L5.1259 1.09683L5.13946 1.08327C5.32159 0.906382 5.56609 0.808406 5.81997 0.810582C6.07385 0.812758 6.31664 0.914911 6.49571 1.09489L10.3707 4.96989C10.4608 5.05984 10.5323 5.16664 10.581 5.28421C10.6298 5.40177 10.655 5.5278 10.6551 5.65509C10.6552 5.78237 10.6302 5.90843 10.5816 6.02607C10.5329 6.1437 10.4616 6.25061 10.3717 6.34068C10.2817 6.43075 10.1749 6.50222 10.0574 6.55101C9.9398 6.59981 9.81378 6.62497 9.68649 6.62506C9.5592 6.62515 9.43314 6.60017 9.31551 6.55154C9.19787 6.50291 9.09097 6.43159 9.0009 6.34165L6.78052 4.11933V21.1558ZM14.5305 2.74952C14.2736 2.74952 14.0272 2.64746 13.8455 2.46578C13.6638 2.2841 13.5618 2.0377 13.5618 1.78077C13.5618 1.52384 13.6638 1.27744 13.8455 1.09576C14.0272 0.914085 14.2736 0.81202 14.5305 0.81202H16.468C16.7249 0.81202 16.9714 0.914085 17.153 1.09576C17.3347 1.27744 17.4368 1.52384 17.4368 1.78077C17.4368 2.0377 17.3347 2.2841 17.153 2.46578C16.9714 2.64746 16.7249 2.74952 16.468 2.74952H14.5305ZM14.5305 8.56202C14.2736 8.56202 14.0272 8.45996 13.8455 8.27828C13.6638 8.0966 13.5618 7.8502 13.5618 7.59327C13.5618 7.33634 13.6638 7.08994 13.8455 6.90826C14.0272 6.72658 14.2736 6.62452 14.5305 6.62452H20.343C20.5999 6.62452 20.8464 6.72658 21.028 6.90826C21.2097 7.08994 21.3118 7.33634 21.3118 7.59327C21.3118 7.8502 21.2097 8.0966 21.028 8.27828C20.8464 8.45996 20.5999 8.56202 20.343 8.56202H14.5305ZM14.5305 14.3745C14.2736 14.3745 14.0272 14.2725 13.8455 14.0908C13.6638 13.9091 13.5618 13.6627 13.5618 13.4058C13.5618 13.1488 13.6638 12.9024 13.8455 12.7208C14.0272 12.5391 14.2736 12.437 14.5305 12.437H24.218C24.475 12.437 24.7214 12.5391 24.903 12.7208C25.0847 12.9024 25.1868 13.1488 25.1868 13.4058C25.1868 13.6627 25.0847 13.9091 24.903 14.0908C24.7214 14.2725 24.475 14.3745 24.218 14.3745H14.5305ZM13.5618 19.2183C13.5618 19.4752 13.6638 19.7216 13.8455 19.9033C14.0272 20.085 14.2736 20.187 14.5305 20.187H28.093C28.35 20.187 28.5964 20.085 28.778 19.9033C28.9597 19.7216 29.0618 19.4752 29.0618 19.2183C29.0618 18.9613 28.9597 18.7149 28.778 18.5333C28.5964 18.3516 28.35 18.2495 28.093 18.2495H14.5305C14.2736 18.2495 14.0272 18.3516 13.8455 18.5333C13.6638 18.7149 13.5618 18.9613 13.5618 19.2183Z" fill="black"/>
</svg>
