<svg width="21" height="20" viewBox="0 0 21 20" fill="none" xmlns="http://www.w3.org/2000/svg">
<path d="M15.75 3.33329H14.875V2.49996C14.875 2.27895 14.7828 2.06698 14.6187 1.9107C14.4546 1.75442 14.2321 1.66663 14 1.66663C13.7679 1.66663 13.5454 1.75442 13.3813 1.9107C13.2172 2.06698 13.125 2.27895 13.125 2.49996V3.33329H7.875V2.49996C7.875 2.27895 7.78281 2.06698 7.61872 1.9107C7.45462 1.75442 7.23206 1.66663 7 1.66663C6.76794 1.66663 6.54538 1.75442 6.38128 1.9107C6.21719 2.06698 6.125 2.27895 6.125 2.49996V3.33329H5.25C4.55381 3.33329 3.88613 3.59668 3.39384 4.06553C2.90156 4.53437 2.625 5.17025 2.625 5.83329V15.8333C2.625 16.4963 2.90156 17.1322 3.39384 17.6011C3.88613 18.0699 4.55381 18.3333 5.25 18.3333H15.75C16.4462 18.3333 17.1139 18.0699 17.6062 17.6011C18.0984 17.1322 18.375 16.4963 18.375 15.8333V5.83329C18.375 5.17025 18.0984 4.53437 17.6062 4.06553C17.1139 3.59668 16.4462 3.33329 15.75 3.33329ZM7 14.1666C6.82694 14.1666 6.65777 14.1178 6.51388 14.0262C6.36998 13.9346 6.25783 13.8045 6.19161 13.6522C6.12538 13.4999 6.10805 13.3324 6.14181 13.1707C6.17557 13.0091 6.25891 12.8606 6.38128 12.744C6.50365 12.6275 6.65956 12.5481 6.8293 12.516C6.99903 12.4838 7.17496 12.5003 7.33485 12.5634C7.49473 12.6265 7.63139 12.7333 7.72754 12.8703C7.82368 13.0074 7.875 13.1685 7.875 13.3333C7.875 13.5543 7.78281 13.7663 7.61872 13.9225C7.45462 14.0788 7.23206 14.1666 7 14.1666ZM14 14.1666H10.5C10.2679 14.1666 10.0454 14.0788 9.88128 13.9225C9.71719 13.7663 9.625 13.5543 9.625 13.3333C9.625 13.1123 9.71719 12.9003 9.88128 12.744C10.0454 12.5878 10.2679 12.5 10.5 12.5H14C14.2321 12.5 14.4546 12.5878 14.6187 12.744C14.7828 12.9003 14.875 13.1123 14.875 13.3333C14.875 13.5543 14.7828 13.7663 14.6187 13.9225C14.4546 14.0788 14.2321 14.1666 14 14.1666ZM16.625 9.16663H4.375V5.83329C4.375 5.61228 4.46719 5.40032 4.63128 5.24404C4.79538 5.08776 5.01794 4.99996 5.25 4.99996H6.125V5.83329C6.125 6.05431 6.21719 6.26627 6.38128 6.42255C6.54538 6.57883 6.76794 6.66663 7 6.66663C7.23206 6.66663 7.45462 6.57883 7.61872 6.42255C7.78281 6.26627 7.875 6.05431 7.875 5.83329V4.99996H13.125V5.83329C13.125 6.05431 13.2172 6.26627 13.3813 6.42255C13.5454 6.57883 13.7679 6.66663 14 6.66663C14.2321 6.66663 14.4546 6.57883 14.6187 6.42255C14.7828 6.26627 14.875 6.05431 14.875 5.83329V4.99996H15.75C15.9821 4.99996 16.2046 5.08776 16.3687 5.24404C16.5328 5.40032 16.625 5.61228 16.625 5.83329V9.16663Z" fill="black"/>
</svg>
