<svg width="148" height="257" viewBox="0 0 148 257" fill="none" xmlns="http://www.w3.org/2000/svg">
<g clip-path="url(#clip0_564_187)">
<path d="M18.735 229.931H0.0150146V190.705H18.2853C26.3249 190.705 31.2739 194.682 31.2739 200.846V200.96C31.2739 205.388 28.9118 207.853 26.1 209.422C30.6534 211.158 33.4651 213.793 33.4651 219.061V219.172C33.4651 226.346 27.6198 229.931 18.735 229.931ZM22.6708 202.304C22.6708 199.726 20.6474 198.27 16.9934 198.27H8.44724V206.562H16.4298C20.2547 206.562 22.6708 205.331 22.6708 202.418V202.304ZM24.88 217.994C24.88 215.362 22.9106 213.736 18.4712 213.736H8.44724V222.366H18.735C22.5599 222.366 24.865 221.021 24.865 218.108L24.88 217.994Z" fill="#1B1951"/>
<path d="M40.6053 229.931V190.705H70.2815V198.381H49.2084V206.338H67.7605V214.017H49.2084V222.255H70.5693V229.931H40.6053Z" fill="#1B1951"/>
<path d="M96.0937 198.662V229.931H87.4367V198.662H75.4613V190.705H108.069V198.662H96.0937Z" fill="#1B1951"/>
<path d="M138.935 229.931L135.338 221.132H118.705L115.107 229.931H106.271L123.138 190.424H131.121L147.985 229.931H138.935ZM127.017 200.795L121.786 213.515H132.245L127.017 200.795Z" fill="#1B1951"/>
<path d="M13.3393 256.635V248.105H4.69123V256.635H0V235.385H4.69123V243.793H13.3393V235.385H18.0275V256.635H13.3393Z" fill="#1B1951"/>
<path d="M33.4981 257C26.9214 257 22.2002 252.112 22.2002 246.07V246.01C22.2002 239.968 26.9963 235.02 33.5581 235.02C40.1198 235.02 44.859 239.909 44.859 245.95V246.01C44.859 252.052 40.0778 257 33.4981 257ZM39.9549 246.01C39.9549 242.368 37.2751 239.332 33.4981 239.332C29.7211 239.332 27.1043 242.32 27.1043 245.95V246.01C27.1043 249.652 29.7841 252.688 33.5581 252.688C37.332 252.688 39.9549 249.715 39.9549 246.07V246.01Z" fill="#1B1951"/>
<path d="M65.6862 256.635V242.762L59.691 251.84H59.5681L53.6269 242.855V256.635H49.0286V235.385H54.0825L59.688 244.37L65.2905 235.385H70.3474V256.635H65.6862Z" fill="#1B1951"/>
<path d="M75.4613 256.635V235.385H91.5404V239.544H80.1226V243.856H90.1705V248.006H80.1226V252.488H91.6933V256.647L75.4613 256.635Z" fill="#1B1951"/>
<path d="M95.1945 256.635V251.777H100.119V256.635H95.1945Z" fill="#1B1951"/>
<path d="M119.526 256.635L109.202 243.127V256.635H104.574V235.385H108.9L118.887 248.469V235.385H123.516V256.635H119.526Z" fill="#1B1951"/>
<path d="M138.896 257C132.257 257 127.688 252.354 127.688 246.07V246.01C127.688 239.968 132.41 235.02 138.863 235.02C142.7 235.02 145.017 236.054 147.239 237.936L144.286 241.486C142.64 240.121 141.187 239.341 138.713 239.341C135.302 239.341 132.592 242.347 132.592 245.959V246.019C132.592 249.903 135.272 252.757 139.046 252.757C140.615 252.804 142.16 252.359 143.462 251.484V248.439H138.743V244.403H148V253.63C145.474 255.813 142.24 257.011 138.896 257Z" fill="#1B1951"/>
<path d="M90.2784 107.769H76.7473V115.081H90.2784V107.769Z" fill="#1B1951"/>
<path d="M107.158 107.769H93.6267V115.081H107.158V107.769Z" fill="#1B1951"/>
<path d="M90.2784 118.218H76.7473V125.53H90.2784V118.218Z" fill="#1B1951"/>
<path d="M107.158 118.218H93.6267V125.53H107.158V118.218Z" fill="#1B1951"/>
<path d="M46.9452 91.5501V94.4216C46.9452 113.565 46.9452 132.709 46.9452 151.854C46.9452 155.117 46.9452 155.126 50.3355 155.126C77.113 155.126 103.893 155.093 130.671 155.171C132.91 155.171 133.369 154.454 133.369 152.392C133.313 122.588 133.313 92.7831 133.369 62.9786C133.369 61.2754 132.814 60.1101 131.612 58.9179C115.293 42.7228 99.0064 26.4978 82.7514 10.2429C82.3108 9.80669 81.8971 9.34654 81.4955 8.92224C84.493 6.05971 87.4607 3.24499 90.8449 0.0149384C93.243 2.52787 95.9618 5.489 98.8035 8.33061C113.905 23.4241 129.031 38.4927 144.181 53.5364C145.425 54.7735 146.013 56.0464 146.01 57.8362C145.962 93.3817 145.953 128.94 145.983 164.512C145.983 167.733 145.962 167.733 142.61 167.733H34.5592V91.5381L46.9452 91.5501Z" fill="#7AC476"/>
<path d="M14.4514 167.646H2.2212C2.15825 166.597 2.05033 165.617 2.05033 164.637C2.05033 129.233 2.03535 93.826 2.00537 58.4159C2.00537 56.2854 2.64386 54.8303 4.15764 53.3512C19.1216 38.7875 34.0486 24.191 48.9386 9.56168C49.3733 9.13439 49.8769 8.77583 50.2486 8.47105L112.206 70.2186L103.528 78.7344L50.6592 25.8554C49.0406 27.3255 47.7036 28.4669 46.4626 29.692C36.5016 39.4539 26.5856 49.2576 16.5797 58.9746C15.1738 60.3402 14.6252 61.7117 14.6282 63.6569C14.6802 97.2722 14.6872 130.889 14.6492 164.509C14.6282 165.552 14.5113 166.597 14.4514 167.646Z" fill="#FFDA57"/>
</g>
<defs>
<clipPath id="clip0_564_187">
<rect width="148" height="257" fill="white"/>
</clipPath>
</defs>
</svg>
