<svg width="31" height="31" viewBox="0 0 31 31" fill="none" xmlns="http://www.w3.org/2000/svg">
<path d="M6.7815 26.1563C6.7815 26.4132 6.67943 26.6596 6.49776 26.8413C6.31608 27.0229 6.06968 27.125 5.81275 27.125C5.55582 27.125 5.30941 27.0229 5.12774 26.8413C4.94606 26.6596 4.844 26.4132 4.844 26.1563V9.11982L2.62362 11.3421C2.53355 11.4322 2.42662 11.5037 2.30894 11.5524C2.19126 11.6011 2.06513 11.6262 1.93775 11.6262C1.68049 11.6262 1.43378 11.524 1.25187 11.3421C1.06997 11.1602 0.967773 10.9135 0.967773 10.6563C0.967773 10.399 1.06997 10.1523 1.25187 9.97038L5.12687 6.09732L5.14044 6.08376C5.32256 5.90687 5.56707 5.80889 5.82095 5.81107C6.07483 5.81325 6.31762 5.9154 6.49669 6.09538L10.3717 9.97038C10.4618 10.0603 10.5332 10.1671 10.582 10.2847C10.6308 10.4023 10.656 10.5283 10.6561 10.6556C10.6562 10.7829 10.6312 10.9089 10.5825 11.0266C10.5339 11.1442 10.4626 11.2511 10.3727 11.3412C10.2827 11.4312 10.1759 11.5027 10.0583 11.5515C9.94078 11.6003 9.81475 11.6255 9.68746 11.6255C9.56018 11.6256 9.43412 11.6007 9.31648 11.552C9.19885 11.5034 9.09194 11.4321 9.00187 11.3421L6.7815 9.11982V26.1563ZM14.5315 7.75001C14.2746 7.75001 14.0282 7.64794 13.8465 7.46627C13.6648 7.28459 13.5627 7.03819 13.5627 6.78126C13.5627 6.52433 13.6648 6.27792 13.8465 6.09625C14.0282 5.91457 14.2746 5.81251 14.5315 5.81251H16.469C16.7259 5.81251 16.9723 5.91457 17.154 6.09625C17.3357 6.27792 17.4377 6.52433 17.4377 6.78126C17.4377 7.03819 17.3357 7.28459 17.154 7.46627C16.9723 7.64794 16.7259 7.75001 16.469 7.75001H14.5315ZM14.5315 13.5625C14.2746 13.5625 14.0282 13.4604 13.8465 13.2788C13.6648 13.0971 13.5627 12.8507 13.5627 12.5938C13.5627 12.3368 13.6648 12.0904 13.8465 11.9087C14.0282 11.7271 14.2746 11.625 14.5315 11.625H20.344C20.6009 11.625 20.8473 11.7271 21.029 11.9087C21.2107 12.0904 21.3127 12.3368 21.3127 12.5938C21.3127 12.8507 21.2107 13.0971 21.029 13.2788C20.8473 13.4604 20.6009 13.5625 20.344 13.5625H14.5315ZM14.5315 19.375C14.2746 19.375 14.0282 19.2729 13.8465 19.0913C13.6648 18.9096 13.5627 18.6632 13.5627 18.4063C13.5627 18.1493 13.6648 17.9029 13.8465 17.7212C14.0282 17.5396 14.2746 17.4375 14.5315 17.4375H24.219C24.4759 17.4375 24.7223 17.5396 24.904 17.7212C25.0857 17.9029 25.1877 18.1493 25.1877 18.4063C25.1877 18.6632 25.0857 18.9096 24.904 19.0913C24.7223 19.2729 24.4759 19.375 24.219 19.375H14.5315ZM13.5627 24.2188C13.5627 24.4757 13.6648 24.7221 13.8465 24.9038C14.0282 25.0854 14.2746 25.1875 14.5315 25.1875H28.094C28.3509 25.1875 28.5973 25.0854 28.779 24.9038C28.9607 24.7221 29.0627 24.4757 29.0627 24.2188C29.0627 23.9618 28.9607 23.7154 28.779 23.5337C28.5973 23.3521 28.3509 23.25 28.094 23.25H14.5315C14.2746 23.25 14.0282 23.3521 13.8465 23.5337C13.6648 23.7154 13.5627 23.9618 13.5627 24.2188Z" fill="black"/>
</svg>
