<svg width="48" height="54" viewBox="0 0 48 54" fill="none" xmlns="http://www.w3.org/2000/svg">
<path fill-rule="evenodd" clip-rule="evenodd" d="M0 23V41.8317C0 44.0408 1.79086 45.8317 4 45.8317H12.1293H20.2587C22.4678 45.8317 24.2587 44.0408 24.2587 41.8317V39.9454V38.0591C24.2587 35.85 26.0495 34.0591 28.2587 34.0591H30.145H32.0312C34.2404 34.0591 36.0312 32.2683 36.0312 30.0591V17.1137V4.16833C36.0312 1.95919 34.2404 0.168335 32.0312 0.168335H18.0156H4C1.79086 0.168335 0 1.9592 0 4.16833V23ZM23.7235 9.66667C23.7235 10.3809 23.1446 10.9599 22.4303 10.9599H18.0156H13.6009C12.8867 10.9599 12.3077 10.3809 12.3077 9.66667C12.3077 8.95246 12.8867 8.37347 13.6009 8.37347H18.0156H22.4303C23.1446 8.37347 23.7235 8.95246 23.7235 9.66667ZM28.8964 16.3556C28.8964 17.0699 28.3174 17.6488 27.6031 17.6488H18.0156H8.4281C7.71389 17.6488 7.1349 17.0699 7.1349 16.3556C7.1349 15.6414 7.71389 15.0624 8.4281 15.0624H18.0156H27.6031C28.3174 15.0624 28.8964 15.6414 28.8964 16.3556ZM28.8964 22.0636C28.8964 22.7778 28.3174 23.3568 27.6031 23.3568H18.0156H8.4281C7.71389 23.3568 7.1349 22.7778 7.1349 22.0636C7.1349 21.3493 7.71389 20.7704 8.4281 20.7704H18.0156H27.6031C28.3174 20.7704 28.8964 21.3493 28.8964 22.0636ZM28.8964 27.7715C28.8964 28.4857 28.3174 29.0647 27.6031 29.0647H18.0156H8.4281C7.71389 29.0647 7.1349 28.4857 7.1349 27.7715C7.1349 27.0573 7.71389 26.4783 8.4281 26.4783H18.0156H27.6031C28.3174 26.4783 28.8964 27.0573 28.8964 27.7715ZM9.81049 35.3523C9.81049 36.0665 9.2315 36.6455 8.51729 36.6455H8.4727H8.4281C7.71389 36.6455 7.1349 36.0665 7.1349 35.3523C7.1349 34.6381 7.71389 34.0591 8.4281 34.0591H8.4727H8.51729C9.2315 34.0591 9.81049 34.6381 9.81049 35.3523ZM18.0156 35.3523C18.0156 36.0665 17.4366 36.6455 16.7224 36.6455H15.2954H13.8685C13.1542 36.6455 12.5753 36.0665 12.5753 35.3523C12.5753 34.6381 13.1542 34.0591 13.8685 34.0591H15.2954H16.7224C17.4366 34.0591 18.0156 34.6381 18.0156 35.3523ZM26.8451 41.1714C26.8451 42.8416 28.8645 43.6782 30.0456 42.4972L31.349 41.194C33.8261 38.7172 35.8529 36.6806 35.8529 36.6682C35.8529 36.6557 33.8261 36.6455 31.349 36.6455H30.8451C28.6359 36.6455 26.8451 38.4364 26.8451 40.6455V41.1714Z" fill="#273357"/>
<path fill-rule="evenodd" clip-rule="evenodd" d="M0 23V41.8317C0 44.0408 1.79086 45.8317 4 45.8317H12.1293H20.2587C22.4678 45.8317 24.2587 44.0408 24.2587 41.8317V39.9454V38.0591C24.2587 35.85 26.0495 34.0591 28.2587 34.0591H30.145H32.0312C34.2404 34.0591 36.0312 32.2683 36.0312 30.0591V17.1137V4.16833C36.0312 1.95919 34.2404 0.168335 32.0312 0.168335H18.0156H4C1.79086 0.168335 0 1.9592 0 4.16833V23ZM23.7235 9.66667C23.7235 10.3809 23.1446 10.9599 22.4303 10.9599H18.0156H13.6009C12.8867 10.9599 12.3077 10.3809 12.3077 9.66667C12.3077 8.95246 12.8867 8.37347 13.6009 8.37347H18.0156H22.4303C23.1446 8.37347 23.7235 8.95246 23.7235 9.66667ZM28.8964 16.3556C28.8964 17.0699 28.3174 17.6488 27.6031 17.6488H18.0156H8.4281C7.71389 17.6488 7.1349 17.0699 7.1349 16.3556C7.1349 15.6414 7.71389 15.0624 8.4281 15.0624H18.0156H27.6031C28.3174 15.0624 28.8964 15.6414 28.8964 16.3556ZM28.8964 22.0636C28.8964 22.7778 28.3174 23.3568 27.6031 23.3568H18.0156H8.4281C7.71389 23.3568 7.1349 22.7778 7.1349 22.0636C7.1349 21.3493 7.71389 20.7704 8.4281 20.7704H18.0156H27.6031C28.3174 20.7704 28.8964 21.3493 28.8964 22.0636ZM28.8964 27.7715C28.8964 28.4857 28.3174 29.0647 27.6031 29.0647H18.0156H8.4281C7.71389 29.0647 7.1349 28.4857 7.1349 27.7715C7.1349 27.0573 7.71389 26.4783 8.4281 26.4783H18.0156H27.6031C28.3174 26.4783 28.8964 27.0573 28.8964 27.7715ZM9.81049 35.3523C9.81049 36.0665 9.2315 36.6455 8.51729 36.6455H8.4727H8.4281C7.71389 36.6455 7.1349 36.0665 7.1349 35.3523C7.1349 34.6381 7.71389 34.0591 8.4281 34.0591H8.4727H8.51729C9.2315 34.0591 9.81049 34.6381 9.81049 35.3523ZM18.0156 35.3523C18.0156 36.0665 17.4366 36.6455 16.7224 36.6455H15.2954H13.8685C13.1542 36.6455 12.5753 36.0665 12.5753 35.3523C12.5753 34.6381 13.1542 34.0591 13.8685 34.0591H15.2954H16.7224C17.4366 34.0591 18.0156 34.6381 18.0156 35.3523ZM26.8451 41.1714C26.8451 42.8416 28.8645 43.6782 30.0456 42.4972L31.349 41.194C33.8261 38.7172 35.8529 36.6806 35.8529 36.6682C35.8529 36.6557 33.8261 36.6455 31.349 36.6455H30.8451C28.6359 36.6455 26.8451 38.4364 26.8451 40.6455V41.1714Z" fill="#273357"/>
<path fill-rule="evenodd" clip-rule="evenodd" d="M0 23V41.8317C0 44.0408 1.79086 45.8317 4 45.8317H12.1293H20.2587C22.4678 45.8317 24.2587 44.0408 24.2587 41.8317V39.9454V38.0591C24.2587 35.85 26.0495 34.0591 28.2587 34.0591H30.145H32.0312C34.2404 34.0591 36.0312 32.2683 36.0312 30.0591V17.1137V4.16833C36.0312 1.95919 34.2404 0.168335 32.0312 0.168335H18.0156H4C1.79086 0.168335 0 1.9592 0 4.16833V23ZM23.7235 9.66667C23.7235 10.3809 23.1446 10.9599 22.4303 10.9599H18.0156H13.6009C12.8867 10.9599 12.3077 10.3809 12.3077 9.66667C12.3077 8.95246 12.8867 8.37347 13.6009 8.37347H18.0156H22.4303C23.1446 8.37347 23.7235 8.95246 23.7235 9.66667ZM28.8964 16.3556C28.8964 17.0699 28.3174 17.6488 27.6031 17.6488H18.0156H8.4281C7.71389 17.6488 7.1349 17.0699 7.1349 16.3556C7.1349 15.6414 7.71389 15.0624 8.4281 15.0624H18.0156H27.6031C28.3174 15.0624 28.8964 15.6414 28.8964 16.3556ZM28.8964 22.0636C28.8964 22.7778 28.3174 23.3568 27.6031 23.3568H18.0156H8.4281C7.71389 23.3568 7.1349 22.7778 7.1349 22.0636C7.1349 21.3493 7.71389 20.7704 8.4281 20.7704H18.0156H27.6031C28.3174 20.7704 28.8964 21.3493 28.8964 22.0636ZM28.8964 27.7715C28.8964 28.4857 28.3174 29.0647 27.6031 29.0647H18.0156H8.4281C7.71389 29.0647 7.1349 28.4857 7.1349 27.7715C7.1349 27.0573 7.71389 26.4783 8.4281 26.4783H18.0156H27.6031C28.3174 26.4783 28.8964 27.0573 28.8964 27.7715ZM9.81049 35.3523C9.81049 36.0665 9.2315 36.6455 8.51729 36.6455H8.4727H8.4281C7.71389 36.6455 7.1349 36.0665 7.1349 35.3523C7.1349 34.6381 7.71389 34.0591 8.4281 34.0591H8.4727H8.51729C9.2315 34.0591 9.81049 34.6381 9.81049 35.3523ZM18.0156 35.3523C18.0156 36.0665 17.4366 36.6455 16.7224 36.6455H15.2954H13.8685C13.1542 36.6455 12.5753 36.0665 12.5753 35.3523C12.5753 34.6381 13.1542 34.0591 13.8685 34.0591H15.2954H16.7224C17.4366 34.0591 18.0156 34.6381 18.0156 35.3523ZM26.8451 41.1714C26.8451 42.8416 28.8645 43.6782 30.0456 42.4972L31.349 41.194C33.8261 38.7172 35.8529 36.6806 35.8529 36.6682C35.8529 36.6557 33.8261 36.6455 31.349 36.6455H30.8451C28.6359 36.6455 26.8451 38.4364 26.8451 40.6455V41.1714Z" fill="#273357"/>
<path fill-rule="evenodd" clip-rule="evenodd" d="M0 23V41.8317C0 44.0408 1.79086 45.8317 4 45.8317H12.1293H20.2587C22.4678 45.8317 24.2587 44.0408 24.2587 41.8317V39.9454V38.0591C24.2587 35.85 26.0495 34.0591 28.2587 34.0591H30.145H32.0312C34.2404 34.0591 36.0312 32.2683 36.0312 30.0591V17.1137V4.16833C36.0312 1.95919 34.2404 0.168335 32.0312 0.168335H18.0156H4C1.79086 0.168335 0 1.9592 0 4.16833V23ZM23.7235 9.66667C23.7235 10.3809 23.1446 10.9599 22.4303 10.9599H18.0156H13.6009C12.8867 10.9599 12.3077 10.3809 12.3077 9.66667C12.3077 8.95246 12.8867 8.37347 13.6009 8.37347H18.0156H22.4303C23.1446 8.37347 23.7235 8.95246 23.7235 9.66667ZM28.8964 16.3556C28.8964 17.0699 28.3174 17.6488 27.6031 17.6488H18.0156H8.4281C7.71389 17.6488 7.1349 17.0699 7.1349 16.3556C7.1349 15.6414 7.71389 15.0624 8.4281 15.0624H18.0156H27.6031C28.3174 15.0624 28.8964 15.6414 28.8964 16.3556ZM28.8964 22.0636C28.8964 22.7778 28.3174 23.3568 27.6031 23.3568H18.0156H8.4281C7.71389 23.3568 7.1349 22.7778 7.1349 22.0636C7.1349 21.3493 7.71389 20.7704 8.4281 20.7704H18.0156H27.6031C28.3174 20.7704 28.8964 21.3493 28.8964 22.0636ZM28.8964 27.7715C28.8964 28.4857 28.3174 29.0647 27.6031 29.0647H18.0156H8.4281C7.71389 29.0647 7.1349 28.4857 7.1349 27.7715C7.1349 27.0573 7.71389 26.4783 8.4281 26.4783H18.0156H27.6031C28.3174 26.4783 28.8964 27.0573 28.8964 27.7715ZM9.81049 35.3523C9.81049 36.0665 9.2315 36.6455 8.51729 36.6455H8.4727H8.4281C7.71389 36.6455 7.1349 36.0665 7.1349 35.3523C7.1349 34.6381 7.71389 34.0591 8.4281 34.0591H8.4727H8.51729C9.2315 34.0591 9.81049 34.6381 9.81049 35.3523ZM18.0156 35.3523C18.0156 36.0665 17.4366 36.6455 16.7224 36.6455H15.2954H13.8685C13.1542 36.6455 12.5753 36.0665 12.5753 35.3523C12.5753 34.6381 13.1542 34.0591 13.8685 34.0591H15.2954H16.7224C17.4366 34.0591 18.0156 34.6381 18.0156 35.3523ZM26.8451 41.1714C26.8451 42.8416 28.8645 43.6782 30.0456 42.4972L31.349 41.194C33.8261 38.7172 35.8529 36.6806 35.8529 36.6682C35.8529 36.6557 33.8261 36.6455 31.349 36.6455H30.8451C28.6359 36.6455 26.8451 38.4364 26.8451 40.6455V41.1714Z" fill="#273357"/>
<path fill-rule="evenodd" clip-rule="evenodd" d="M0 23V41.8317C0 44.0408 1.79086 45.8317 4 45.8317H12.1293H20.2587C22.4678 45.8317 24.2587 44.0408 24.2587 41.8317V39.9454V38.0591C24.2587 35.85 26.0495 34.0591 28.2587 34.0591H30.145H32.0312C34.2404 34.0591 36.0312 32.2683 36.0312 30.0591V17.1137V4.16833C36.0312 1.95919 34.2404 0.168335 32.0312 0.168335H18.0156H4C1.79086 0.168335 0 1.9592 0 4.16833V23ZM23.7235 9.66667C23.7235 10.3809 23.1446 10.9599 22.4303 10.9599H18.0156H13.6009C12.8867 10.9599 12.3077 10.3809 12.3077 9.66667C12.3077 8.95246 12.8867 8.37347 13.6009 8.37347H18.0156H22.4303C23.1446 8.37347 23.7235 8.95246 23.7235 9.66667ZM28.8964 16.3556C28.8964 17.0699 28.3174 17.6488 27.6031 17.6488H18.0156H8.4281C7.71389 17.6488 7.1349 17.0699 7.1349 16.3556C7.1349 15.6414 7.71389 15.0624 8.4281 15.0624H18.0156H27.6031C28.3174 15.0624 28.8964 15.6414 28.8964 16.3556ZM28.8964 22.0636C28.8964 22.7778 28.3174 23.3568 27.6031 23.3568H18.0156H8.4281C7.71389 23.3568 7.1349 22.7778 7.1349 22.0636C7.1349 21.3493 7.71389 20.7704 8.4281 20.7704H18.0156H27.6031C28.3174 20.7704 28.8964 21.3493 28.8964 22.0636ZM28.8964 27.7715C28.8964 28.4857 28.3174 29.0647 27.6031 29.0647H18.0156H8.4281C7.71389 29.0647 7.1349 28.4857 7.1349 27.7715C7.1349 27.0573 7.71389 26.4783 8.4281 26.4783H18.0156H27.6031C28.3174 26.4783 28.8964 27.0573 28.8964 27.7715ZM9.81049 35.3523C9.81049 36.0665 9.2315 36.6455 8.51729 36.6455H8.4727H8.4281C7.71389 36.6455 7.1349 36.0665 7.1349 35.3523C7.1349 34.6381 7.71389 34.0591 8.4281 34.0591H8.4727H8.51729C9.2315 34.0591 9.81049 34.6381 9.81049 35.3523ZM18.0156 35.3523C18.0156 36.0665 17.4366 36.6455 16.7224 36.6455H15.2954H13.8685C13.1542 36.6455 12.5753 36.0665 12.5753 35.3523C12.5753 34.6381 13.1542 34.0591 13.8685 34.0591H15.2954H16.7224C17.4366 34.0591 18.0156 34.6381 18.0156 35.3523ZM26.8451 41.1714C26.8451 42.8416 28.8645 43.6782 30.0456 42.4972L31.349 41.194C33.8261 38.7172 35.8529 36.6806 35.8529 36.6682C35.8529 36.6557 33.8261 36.6455 31.349 36.6455H30.8451C28.6359 36.6455 26.8451 38.4364 26.8451 40.6455V41.1714Z" fill="#273357"/>
<path fill-rule="evenodd" clip-rule="evenodd" d="M0 23V41.8317C0 44.0408 1.79086 45.8317 4 45.8317H12.1293H20.2587C22.4678 45.8317 24.2587 44.0408 24.2587 41.8317V39.9454V38.0591C24.2587 35.85 26.0495 34.0591 28.2587 34.0591H30.145H32.0312C34.2404 34.0591 36.0312 32.2683 36.0312 30.0591V17.1137V4.16833C36.0312 1.95919 34.2404 0.168335 32.0312 0.168335H18.0156H4C1.79086 0.168335 0 1.9592 0 4.16833V23ZM23.7235 9.66667C23.7235 10.3809 23.1446 10.9599 22.4303 10.9599H18.0156H13.6009C12.8867 10.9599 12.3077 10.3809 12.3077 9.66667C12.3077 8.95246 12.8867 8.37347 13.6009 8.37347H18.0156H22.4303C23.1446 8.37347 23.7235 8.95246 23.7235 9.66667ZM28.8964 16.3556C28.8964 17.0699 28.3174 17.6488 27.6031 17.6488H18.0156H8.4281C7.71389 17.6488 7.1349 17.0699 7.1349 16.3556C7.1349 15.6414 7.71389 15.0624 8.4281 15.0624H18.0156H27.6031C28.3174 15.0624 28.8964 15.6414 28.8964 16.3556ZM28.8964 22.0636C28.8964 22.7778 28.3174 23.3568 27.6031 23.3568H18.0156H8.4281C7.71389 23.3568 7.1349 22.7778 7.1349 22.0636C7.1349 21.3493 7.71389 20.7704 8.4281 20.7704H18.0156H27.6031C28.3174 20.7704 28.8964 21.3493 28.8964 22.0636ZM28.8964 27.7715C28.8964 28.4857 28.3174 29.0647 27.6031 29.0647H18.0156H8.4281C7.71389 29.0647 7.1349 28.4857 7.1349 27.7715C7.1349 27.0573 7.71389 26.4783 8.4281 26.4783H18.0156H27.6031C28.3174 26.4783 28.8964 27.0573 28.8964 27.7715ZM9.81049 35.3523C9.81049 36.0665 9.2315 36.6455 8.51729 36.6455H8.4727H8.4281C7.71389 36.6455 7.1349 36.0665 7.1349 35.3523C7.1349 34.6381 7.71389 34.0591 8.4281 34.0591H8.4727H8.51729C9.2315 34.0591 9.81049 34.6381 9.81049 35.3523ZM18.0156 35.3523C18.0156 36.0665 17.4366 36.6455 16.7224 36.6455H15.2954H13.8685C13.1542 36.6455 12.5753 36.0665 12.5753 35.3523C12.5753 34.6381 13.1542 34.0591 13.8685 34.0591H15.2954H16.7224C17.4366 34.0591 18.0156 34.6381 18.0156 35.3523ZM26.8451 41.1714C26.8451 42.8416 28.8645 43.6782 30.0456 42.4972L31.349 41.194C33.8261 38.7172 35.8529 36.6806 35.8529 36.6682C35.8529 36.6557 33.8261 36.6455 31.349 36.6455H30.8451C28.6359 36.6455 26.8451 38.4364 26.8451 40.6455V41.1714Z" fill="#273357"/>
<path fill-rule="evenodd" clip-rule="evenodd" d="M0 23V41.8317C0 44.0408 1.79086 45.8317 4 45.8317H12.1293H20.2587C22.4678 45.8317 24.2587 44.0408 24.2587 41.8317V39.9454V38.0591C24.2587 35.85 26.0495 34.0591 28.2587 34.0591H30.145H32.0312C34.2404 34.0591 36.0312 32.2683 36.0312 30.0591V17.1137V4.16833C36.0312 1.95919 34.2404 0.168335 32.0312 0.168335H18.0156H4C1.79086 0.168335 0 1.9592 0 4.16833V23ZM23.7235 9.66667C23.7235 10.3809 23.1446 10.9599 22.4303 10.9599H18.0156H13.6009C12.8867 10.9599 12.3077 10.3809 12.3077 9.66667C12.3077 8.95246 12.8867 8.37347 13.6009 8.37347H18.0156H22.4303C23.1446 8.37347 23.7235 8.95246 23.7235 9.66667ZM28.8964 16.3556C28.8964 17.0699 28.3174 17.6488 27.6031 17.6488H18.0156H8.4281C7.71389 17.6488 7.1349 17.0699 7.1349 16.3556C7.1349 15.6414 7.71389 15.0624 8.4281 15.0624H18.0156H27.6031C28.3174 15.0624 28.8964 15.6414 28.8964 16.3556ZM28.8964 22.0636C28.8964 22.7778 28.3174 23.3568 27.6031 23.3568H18.0156H8.4281C7.71389 23.3568 7.1349 22.7778 7.1349 22.0636C7.1349 21.3493 7.71389 20.7704 8.4281 20.7704H18.0156H27.6031C28.3174 20.7704 28.8964 21.3493 28.8964 22.0636ZM28.8964 27.7715C28.8964 28.4857 28.3174 29.0647 27.6031 29.0647H18.0156H8.4281C7.71389 29.0647 7.1349 28.4857 7.1349 27.7715C7.1349 27.0573 7.71389 26.4783 8.4281 26.4783H18.0156H27.6031C28.3174 26.4783 28.8964 27.0573 28.8964 27.7715ZM9.81049 35.3523C9.81049 36.0665 9.2315 36.6455 8.51729 36.6455H8.4727H8.4281C7.71389 36.6455 7.1349 36.0665 7.1349 35.3523C7.1349 34.6381 7.71389 34.0591 8.4281 34.0591H8.4727H8.51729C9.2315 34.0591 9.81049 34.6381 9.81049 35.3523ZM18.0156 35.3523C18.0156 36.0665 17.4366 36.6455 16.7224 36.6455H15.2954H13.8685C13.1542 36.6455 12.5753 36.0665 12.5753 35.3523C12.5753 34.6381 13.1542 34.0591 13.8685 34.0591H15.2954H16.7224C17.4366 34.0591 18.0156 34.6381 18.0156 35.3523ZM26.8451 41.1714C26.8451 42.8416 28.8645 43.6782 30.0456 42.4972L31.349 41.194C33.8261 38.7172 35.8529 36.6806 35.8529 36.6682C35.8529 36.6557 33.8261 36.6455 31.349 36.6455H30.8451C28.6359 36.6455 26.8451 38.4364 26.8451 40.6455V41.1714Z" fill="#273357"/>
<path fill-rule="evenodd" clip-rule="evenodd" d="M0 23V41.8317C0 44.0408 1.79086 45.8317 4 45.8317H12.1293H20.2587C22.4678 45.8317 24.2587 44.0408 24.2587 41.8317V39.9454V38.0591C24.2587 35.85 26.0495 34.0591 28.2587 34.0591H30.145H32.0312C34.2404 34.0591 36.0312 32.2683 36.0312 30.0591V17.1137V4.16833C36.0312 1.95919 34.2404 0.168335 32.0312 0.168335H18.0156H4C1.79086 0.168335 0 1.9592 0 4.16833V23ZM23.7235 9.66667C23.7235 10.3809 23.1446 10.9599 22.4303 10.9599H18.0156H13.6009C12.8867 10.9599 12.3077 10.3809 12.3077 9.66667C12.3077 8.95246 12.8867 8.37347 13.6009 8.37347H18.0156H22.4303C23.1446 8.37347 23.7235 8.95246 23.7235 9.66667ZM28.8964 16.3556C28.8964 17.0699 28.3174 17.6488 27.6031 17.6488H18.0156H8.4281C7.71389 17.6488 7.1349 17.0699 7.1349 16.3556C7.1349 15.6414 7.71389 15.0624 8.4281 15.0624H18.0156H27.6031C28.3174 15.0624 28.8964 15.6414 28.8964 16.3556ZM28.8964 22.0636C28.8964 22.7778 28.3174 23.3568 27.6031 23.3568H18.0156H8.4281C7.71389 23.3568 7.1349 22.7778 7.1349 22.0636C7.1349 21.3493 7.71389 20.7704 8.4281 20.7704H18.0156H27.6031C28.3174 20.7704 28.8964 21.3493 28.8964 22.0636ZM28.8964 27.7715C28.8964 28.4857 28.3174 29.0647 27.6031 29.0647H18.0156H8.4281C7.71389 29.0647 7.1349 28.4857 7.1349 27.7715C7.1349 27.0573 7.71389 26.4783 8.4281 26.4783H18.0156H27.6031C28.3174 26.4783 28.8964 27.0573 28.8964 27.7715ZM9.81049 35.3523C9.81049 36.0665 9.2315 36.6455 8.51729 36.6455H8.4727H8.4281C7.71389 36.6455 7.1349 36.0665 7.1349 35.3523C7.1349 34.6381 7.71389 34.0591 8.4281 34.0591H8.4727H8.51729C9.2315 34.0591 9.81049 34.6381 9.81049 35.3523ZM18.0156 35.3523C18.0156 36.0665 17.4366 36.6455 16.7224 36.6455H15.2954H13.8685C13.1542 36.6455 12.5753 36.0665 12.5753 35.3523C12.5753 34.6381 13.1542 34.0591 13.8685 34.0591H15.2954H16.7224C17.4366 34.0591 18.0156 34.6381 18.0156 35.3523ZM26.8451 41.1714C26.8451 42.8416 28.8645 43.6782 30.0456 42.4972L31.349 41.194C33.8261 38.7172 35.8529 36.6806 35.8529 36.6682C35.8529 36.6557 33.8261 36.6455 31.349 36.6455H30.8451C28.6359 36.6455 26.8451 38.4364 26.8451 40.6455V41.1714Z" fill="#273357"/>
<path fill-rule="evenodd" clip-rule="evenodd" d="M44 12.1683H15V21.1683V40.1683V49.1683H31V40.1683H44V12.1683Z" fill="white"/>
<path fill-rule="evenodd" clip-rule="evenodd" d="M11 31V49.8317C11 52.0408 12.7909 53.8317 15 53.8317H23.1293H31.2587C33.4678 53.8317 35.2587 52.0408 35.2587 49.8317V47.9454V46.0591C35.2587 43.85 37.0495 42.0591 39.2587 42.0591H41.145H43.0312C45.2404 42.0591 47.0312 40.2683 47.0312 38.0591V25.1137V12.1683C47.0312 9.95919 45.2404 8.16833 43.0312 8.16833H29.0156H15C12.7909 8.16833 11 9.9592 11 12.1683V31ZM34.7235 17.6667C34.7235 18.3809 34.1446 18.9599 33.4303 18.9599H29.0156H24.6009C23.8867 18.9599 23.3077 18.3809 23.3077 17.6667C23.3077 16.9525 23.8867 16.3735 24.6009 16.3735H29.0156H33.4303C34.1446 16.3735 34.7235 16.9525 34.7235 17.6667ZM39.8964 24.3556C39.8964 25.0699 39.3174 25.6488 38.6031 25.6488H29.0156H19.4281C18.7139 25.6488 18.1349 25.0699 18.1349 24.3556C18.1349 23.6414 18.7139 23.0624 19.4281 23.0624H29.0156H38.6031C39.3174 23.0624 39.8964 23.6414 39.8964 24.3556ZM39.8964 30.0636C39.8964 30.7778 39.3174 31.3568 38.6031 31.3568H29.0156H19.4281C18.7139 31.3568 18.1349 30.7778 18.1349 30.0636C18.1349 29.3493 18.7139 28.7704 19.4281 28.7704H29.0156H38.6031C39.3174 28.7704 39.8964 29.3493 39.8964 30.0636ZM39.8964 35.7715C39.8964 36.4857 39.3174 37.0647 38.6031 37.0647H29.0156H19.4281C18.7139 37.0647 18.1349 36.4857 18.1349 35.7715C18.1349 35.0573 18.7139 34.4783 19.4281 34.4783H29.0156H38.6031C39.3174 34.4783 39.8964 35.0573 39.8964 35.7715ZM20.8105 43.3523C20.8105 44.0665 20.2315 44.6455 19.5173 44.6455H19.4727H19.4281C18.7139 44.6455 18.1349 44.0665 18.1349 43.3523C18.1349 42.6381 18.7139 42.0591 19.4281 42.0591H19.4727H19.5173C20.2315 42.0591 20.8105 42.6381 20.8105 43.3523ZM29.0156 43.3523C29.0156 44.0665 28.4366 44.6455 27.7224 44.6455H26.2954H24.8685C24.1542 44.6455 23.5753 44.0665 23.5753 43.3523C23.5753 42.6381 24.1542 42.0591 24.8685 42.0591H26.2954H27.7224C28.4366 42.0591 29.0156 42.6381 29.0156 43.3523ZM37.8451 49.1714C37.8451 50.8416 39.8645 51.6782 41.0456 50.4972L42.349 49.194C44.8261 46.7172 46.8529 44.6806 46.8529 44.6682C46.8529 44.6557 44.8261 44.6455 42.349 44.6455H41.8451C39.6359 44.6455 37.8451 46.4364 37.8451 48.6455V49.1714Z" fill="#FFDA58"/>
<path fill-rule="evenodd" clip-rule="evenodd" d="M11 31V49.8317C11 52.0408 12.7909 53.8317 15 53.8317H23.1293H31.2587C33.4678 53.8317 35.2587 52.0408 35.2587 49.8317V47.9454V46.0591C35.2587 43.85 37.0495 42.0591 39.2587 42.0591H41.145H43.0312C45.2404 42.0591 47.0312 40.2683 47.0312 38.0591V25.1137V12.1683C47.0312 9.95919 45.2404 8.16833 43.0312 8.16833H29.0156H15C12.7909 8.16833 11 9.9592 11 12.1683V31ZM34.7235 17.6667C34.7235 18.3809 34.1446 18.9599 33.4303 18.9599H29.0156H24.6009C23.8867 18.9599 23.3077 18.3809 23.3077 17.6667C23.3077 16.9525 23.8867 16.3735 24.6009 16.3735H29.0156H33.4303C34.1446 16.3735 34.7235 16.9525 34.7235 17.6667ZM39.8964 24.3556C39.8964 25.0699 39.3174 25.6488 38.6031 25.6488H29.0156H19.4281C18.7139 25.6488 18.1349 25.0699 18.1349 24.3556C18.1349 23.6414 18.7139 23.0624 19.4281 23.0624H29.0156H38.6031C39.3174 23.0624 39.8964 23.6414 39.8964 24.3556ZM39.8964 30.0636C39.8964 30.7778 39.3174 31.3568 38.6031 31.3568H29.0156H19.4281C18.7139 31.3568 18.1349 30.7778 18.1349 30.0636C18.1349 29.3493 18.7139 28.7704 19.4281 28.7704H29.0156H38.6031C39.3174 28.7704 39.8964 29.3493 39.8964 30.0636ZM39.8964 35.7715C39.8964 36.4857 39.3174 37.0647 38.6031 37.0647H29.0156H19.4281C18.7139 37.0647 18.1349 36.4857 18.1349 35.7715C18.1349 35.0573 18.7139 34.4783 19.4281 34.4783H29.0156H38.6031C39.3174 34.4783 39.8964 35.0573 39.8964 35.7715ZM20.8105 43.3523C20.8105 44.0665 20.2315 44.6455 19.5173 44.6455H19.4727H19.4281C18.7139 44.6455 18.1349 44.0665 18.1349 43.3523C18.1349 42.6381 18.7139 42.0591 19.4281 42.0591H19.4727H19.5173C20.2315 42.0591 20.8105 42.6381 20.8105 43.3523ZM29.0156 43.3523C29.0156 44.0665 28.4366 44.6455 27.7224 44.6455H26.2954H24.8685C24.1542 44.6455 23.5753 44.0665 23.5753 43.3523C23.5753 42.6381 24.1542 42.0591 24.8685 42.0591H26.2954H27.7224C28.4366 42.0591 29.0156 42.6381 29.0156 43.3523ZM37.8451 49.1714C37.8451 50.8416 39.8645 51.6782 41.0456 50.4972L42.349 49.194C44.8261 46.7172 46.8529 44.6806 46.8529 44.6682C46.8529 44.6557 44.8261 44.6455 42.349 44.6455H41.8451C39.6359 44.6455 37.8451 46.4364 37.8451 48.6455V49.1714Z" fill="#FFDA58"/>
<path fill-rule="evenodd" clip-rule="evenodd" d="M11 31V49.8317C11 52.0408 12.7909 53.8317 15 53.8317H23.1293H31.2587C33.4678 53.8317 35.2587 52.0408 35.2587 49.8317V47.9454V46.0591C35.2587 43.85 37.0495 42.0591 39.2587 42.0591H41.145H43.0312C45.2404 42.0591 47.0312 40.2683 47.0312 38.0591V25.1137V12.1683C47.0312 9.95919 45.2404 8.16833 43.0312 8.16833H29.0156H15C12.7909 8.16833 11 9.9592 11 12.1683V31ZM34.7235 17.6667C34.7235 18.3809 34.1446 18.9599 33.4303 18.9599H29.0156H24.6009C23.8867 18.9599 23.3077 18.3809 23.3077 17.6667C23.3077 16.9525 23.8867 16.3735 24.6009 16.3735H29.0156H33.4303C34.1446 16.3735 34.7235 16.9525 34.7235 17.6667ZM39.8964 24.3556C39.8964 25.0699 39.3174 25.6488 38.6031 25.6488H29.0156H19.4281C18.7139 25.6488 18.1349 25.0699 18.1349 24.3556C18.1349 23.6414 18.7139 23.0624 19.4281 23.0624H29.0156H38.6031C39.3174 23.0624 39.8964 23.6414 39.8964 24.3556ZM39.8964 30.0636C39.8964 30.7778 39.3174 31.3568 38.6031 31.3568H29.0156H19.4281C18.7139 31.3568 18.1349 30.7778 18.1349 30.0636C18.1349 29.3493 18.7139 28.7704 19.4281 28.7704H29.0156H38.6031C39.3174 28.7704 39.8964 29.3493 39.8964 30.0636ZM39.8964 35.7715C39.8964 36.4857 39.3174 37.0647 38.6031 37.0647H29.0156H19.4281C18.7139 37.0647 18.1349 36.4857 18.1349 35.7715C18.1349 35.0573 18.7139 34.4783 19.4281 34.4783H29.0156H38.6031C39.3174 34.4783 39.8964 35.0573 39.8964 35.7715ZM20.8105 43.3523C20.8105 44.0665 20.2315 44.6455 19.5173 44.6455H19.4727H19.4281C18.7139 44.6455 18.1349 44.0665 18.1349 43.3523C18.1349 42.6381 18.7139 42.0591 19.4281 42.0591H19.4727H19.5173C20.2315 42.0591 20.8105 42.6381 20.8105 43.3523ZM29.0156 43.3523C29.0156 44.0665 28.4366 44.6455 27.7224 44.6455H26.2954H24.8685C24.1542 44.6455 23.5753 44.0665 23.5753 43.3523C23.5753 42.6381 24.1542 42.0591 24.8685 42.0591H26.2954H27.7224C28.4366 42.0591 29.0156 42.6381 29.0156 43.3523ZM37.8451 49.1714C37.8451 50.8416 39.8645 51.6782 41.0456 50.4972L42.349 49.194C44.8261 46.7172 46.8529 44.6806 46.8529 44.6682C46.8529 44.6557 44.8261 44.6455 42.349 44.6455H41.8451C39.6359 44.6455 37.8451 46.4364 37.8451 48.6455V49.1714Z" fill="#FFDA58"/>
<path fill-rule="evenodd" clip-rule="evenodd" d="M11 31V49.8317C11 52.0408 12.7909 53.8317 15 53.8317H23.1293H31.2587C33.4678 53.8317 35.2587 52.0408 35.2587 49.8317V47.9454V46.0591C35.2587 43.85 37.0495 42.0591 39.2587 42.0591H41.145H43.0312C45.2404 42.0591 47.0312 40.2683 47.0312 38.0591V25.1137V12.1683C47.0312 9.95919 45.2404 8.16833 43.0312 8.16833H29.0156H15C12.7909 8.16833 11 9.9592 11 12.1683V31ZM34.7235 17.6667C34.7235 18.3809 34.1446 18.9599 33.4303 18.9599H29.0156H24.6009C23.8867 18.9599 23.3077 18.3809 23.3077 17.6667C23.3077 16.9525 23.8867 16.3735 24.6009 16.3735H29.0156H33.4303C34.1446 16.3735 34.7235 16.9525 34.7235 17.6667ZM39.8964 24.3556C39.8964 25.0699 39.3174 25.6488 38.6031 25.6488H29.0156H19.4281C18.7139 25.6488 18.1349 25.0699 18.1349 24.3556C18.1349 23.6414 18.7139 23.0624 19.4281 23.0624H29.0156H38.6031C39.3174 23.0624 39.8964 23.6414 39.8964 24.3556ZM39.8964 30.0636C39.8964 30.7778 39.3174 31.3568 38.6031 31.3568H29.0156H19.4281C18.7139 31.3568 18.1349 30.7778 18.1349 30.0636C18.1349 29.3493 18.7139 28.7704 19.4281 28.7704H29.0156H38.6031C39.3174 28.7704 39.8964 29.3493 39.8964 30.0636ZM39.8964 35.7715C39.8964 36.4857 39.3174 37.0647 38.6031 37.0647H29.0156H19.4281C18.7139 37.0647 18.1349 36.4857 18.1349 35.7715C18.1349 35.0573 18.7139 34.4783 19.4281 34.4783H29.0156H38.6031C39.3174 34.4783 39.8964 35.0573 39.8964 35.7715ZM20.8105 43.3523C20.8105 44.0665 20.2315 44.6455 19.5173 44.6455H19.4727H19.4281C18.7139 44.6455 18.1349 44.0665 18.1349 43.3523C18.1349 42.6381 18.7139 42.0591 19.4281 42.0591H19.4727H19.5173C20.2315 42.0591 20.8105 42.6381 20.8105 43.3523ZM29.0156 43.3523C29.0156 44.0665 28.4366 44.6455 27.7224 44.6455H26.2954H24.8685C24.1542 44.6455 23.5753 44.0665 23.5753 43.3523C23.5753 42.6381 24.1542 42.0591 24.8685 42.0591H26.2954H27.7224C28.4366 42.0591 29.0156 42.6381 29.0156 43.3523ZM37.8451 49.1714C37.8451 50.8416 39.8645 51.6782 41.0456 50.4972L42.349 49.194C44.8261 46.7172 46.8529 44.6806 46.8529 44.6682C46.8529 44.6557 44.8261 44.6455 42.349 44.6455H41.8451C39.6359 44.6455 37.8451 46.4364 37.8451 48.6455V49.1714Z" fill="#FFDA58"/>
<path fill-rule="evenodd" clip-rule="evenodd" d="M11 31V49.8317C11 52.0408 12.7909 53.8317 15 53.8317H23.1293H31.2587C33.4678 53.8317 35.2587 52.0408 35.2587 49.8317V47.9454V46.0591C35.2587 43.85 37.0495 42.0591 39.2587 42.0591H41.145H43.0312C45.2404 42.0591 47.0312 40.2683 47.0312 38.0591V25.1137V12.1683C47.0312 9.95919 45.2404 8.16833 43.0312 8.16833H29.0156H15C12.7909 8.16833 11 9.9592 11 12.1683V31ZM34.7235 17.6667C34.7235 18.3809 34.1446 18.9599 33.4303 18.9599H29.0156H24.6009C23.8867 18.9599 23.3077 18.3809 23.3077 17.6667C23.3077 16.9525 23.8867 16.3735 24.6009 16.3735H29.0156H33.4303C34.1446 16.3735 34.7235 16.9525 34.7235 17.6667ZM39.8964 24.3556C39.8964 25.0699 39.3174 25.6488 38.6031 25.6488H29.0156H19.4281C18.7139 25.6488 18.1349 25.0699 18.1349 24.3556C18.1349 23.6414 18.7139 23.0624 19.4281 23.0624H29.0156H38.6031C39.3174 23.0624 39.8964 23.6414 39.8964 24.3556ZM39.8964 30.0636C39.8964 30.7778 39.3174 31.3568 38.6031 31.3568H29.0156H19.4281C18.7139 31.3568 18.1349 30.7778 18.1349 30.0636C18.1349 29.3493 18.7139 28.7704 19.4281 28.7704H29.0156H38.6031C39.3174 28.7704 39.8964 29.3493 39.8964 30.0636ZM39.8964 35.7715C39.8964 36.4857 39.3174 37.0647 38.6031 37.0647H29.0156H19.4281C18.7139 37.0647 18.1349 36.4857 18.1349 35.7715C18.1349 35.0573 18.7139 34.4783 19.4281 34.4783H29.0156H38.6031C39.3174 34.4783 39.8964 35.0573 39.8964 35.7715ZM20.8105 43.3523C20.8105 44.0665 20.2315 44.6455 19.5173 44.6455H19.4727H19.4281C18.7139 44.6455 18.1349 44.0665 18.1349 43.3523C18.1349 42.6381 18.7139 42.0591 19.4281 42.0591H19.4727H19.5173C20.2315 42.0591 20.8105 42.6381 20.8105 43.3523ZM29.0156 43.3523C29.0156 44.0665 28.4366 44.6455 27.7224 44.6455H26.2954H24.8685C24.1542 44.6455 23.5753 44.0665 23.5753 43.3523C23.5753 42.6381 24.1542 42.0591 24.8685 42.0591H26.2954H27.7224C28.4366 42.0591 29.0156 42.6381 29.0156 43.3523ZM37.8451 49.1714C37.8451 50.8416 39.8645 51.6782 41.0456 50.4972L42.349 49.194C44.8261 46.7172 46.8529 44.6806 46.8529 44.6682C46.8529 44.6557 44.8261 44.6455 42.349 44.6455H41.8451C39.6359 44.6455 37.8451 46.4364 37.8451 48.6455V49.1714Z" fill="#FFDA58"/>
<path fill-rule="evenodd" clip-rule="evenodd" d="M11 31V49.8317C11 52.0408 12.7909 53.8317 15 53.8317H23.1293H31.2587C33.4678 53.8317 35.2587 52.0408 35.2587 49.8317V47.9454V46.0591C35.2587 43.85 37.0495 42.0591 39.2587 42.0591H41.145H43.0312C45.2404 42.0591 47.0312 40.2683 47.0312 38.0591V25.1137V12.1683C47.0312 9.95919 45.2404 8.16833 43.0312 8.16833H29.0156H15C12.7909 8.16833 11 9.9592 11 12.1683V31ZM34.7235 17.6667C34.7235 18.3809 34.1446 18.9599 33.4303 18.9599H29.0156H24.6009C23.8867 18.9599 23.3077 18.3809 23.3077 17.6667C23.3077 16.9525 23.8867 16.3735 24.6009 16.3735H29.0156H33.4303C34.1446 16.3735 34.7235 16.9525 34.7235 17.6667ZM39.8964 24.3556C39.8964 25.0699 39.3174 25.6488 38.6031 25.6488H29.0156H19.4281C18.7139 25.6488 18.1349 25.0699 18.1349 24.3556C18.1349 23.6414 18.7139 23.0624 19.4281 23.0624H29.0156H38.6031C39.3174 23.0624 39.8964 23.6414 39.8964 24.3556ZM39.8964 30.0636C39.8964 30.7778 39.3174 31.3568 38.6031 31.3568H29.0156H19.4281C18.7139 31.3568 18.1349 30.7778 18.1349 30.0636C18.1349 29.3493 18.7139 28.7704 19.4281 28.7704H29.0156H38.6031C39.3174 28.7704 39.8964 29.3493 39.8964 30.0636ZM39.8964 35.7715C39.8964 36.4857 39.3174 37.0647 38.6031 37.0647H29.0156H19.4281C18.7139 37.0647 18.1349 36.4857 18.1349 35.7715C18.1349 35.0573 18.7139 34.4783 19.4281 34.4783H29.0156H38.6031C39.3174 34.4783 39.8964 35.0573 39.8964 35.7715ZM20.8105 43.3523C20.8105 44.0665 20.2315 44.6455 19.5173 44.6455H19.4727H19.4281C18.7139 44.6455 18.1349 44.0665 18.1349 43.3523C18.1349 42.6381 18.7139 42.0591 19.4281 42.0591H19.4727H19.5173C20.2315 42.0591 20.8105 42.6381 20.8105 43.3523ZM29.0156 43.3523C29.0156 44.0665 28.4366 44.6455 27.7224 44.6455H26.2954H24.8685C24.1542 44.6455 23.5753 44.0665 23.5753 43.3523C23.5753 42.6381 24.1542 42.0591 24.8685 42.0591H26.2954H27.7224C28.4366 42.0591 29.0156 42.6381 29.0156 43.3523ZM37.8451 49.1714C37.8451 50.8416 39.8645 51.6782 41.0456 50.4972L42.349 49.194C44.8261 46.7172 46.8529 44.6806 46.8529 44.6682C46.8529 44.6557 44.8261 44.6455 42.349 44.6455H41.8451C39.6359 44.6455 37.8451 46.4364 37.8451 48.6455V49.1714Z" fill="#FFDA58"/>
<path fill-rule="evenodd" clip-rule="evenodd" d="M11 31V49.8317C11 52.0408 12.7909 53.8317 15 53.8317H23.1293H31.2587C33.4678 53.8317 35.2587 52.0408 35.2587 49.8317V47.9454V46.0591C35.2587 43.85 37.0495 42.0591 39.2587 42.0591H41.145H43.0312C45.2404 42.0591 47.0312 40.2683 47.0312 38.0591V25.1137V12.1683C47.0312 9.95919 45.2404 8.16833 43.0312 8.16833H29.0156H15C12.7909 8.16833 11 9.9592 11 12.1683V31ZM34.7235 17.6667C34.7235 18.3809 34.1446 18.9599 33.4303 18.9599H29.0156H24.6009C23.8867 18.9599 23.3077 18.3809 23.3077 17.6667C23.3077 16.9525 23.8867 16.3735 24.6009 16.3735H29.0156H33.4303C34.1446 16.3735 34.7235 16.9525 34.7235 17.6667ZM39.8964 24.3556C39.8964 25.0699 39.3174 25.6488 38.6031 25.6488H29.0156H19.4281C18.7139 25.6488 18.1349 25.0699 18.1349 24.3556C18.1349 23.6414 18.7139 23.0624 19.4281 23.0624H29.0156H38.6031C39.3174 23.0624 39.8964 23.6414 39.8964 24.3556ZM39.8964 30.0636C39.8964 30.7778 39.3174 31.3568 38.6031 31.3568H29.0156H19.4281C18.7139 31.3568 18.1349 30.7778 18.1349 30.0636C18.1349 29.3493 18.7139 28.7704 19.4281 28.7704H29.0156H38.6031C39.3174 28.7704 39.8964 29.3493 39.8964 30.0636ZM39.8964 35.7715C39.8964 36.4857 39.3174 37.0647 38.6031 37.0647H29.0156H19.4281C18.7139 37.0647 18.1349 36.4857 18.1349 35.7715C18.1349 35.0573 18.7139 34.4783 19.4281 34.4783H29.0156H38.6031C39.3174 34.4783 39.8964 35.0573 39.8964 35.7715ZM20.8105 43.3523C20.8105 44.0665 20.2315 44.6455 19.5173 44.6455H19.4727H19.4281C18.7139 44.6455 18.1349 44.0665 18.1349 43.3523C18.1349 42.6381 18.7139 42.0591 19.4281 42.0591H19.4727H19.5173C20.2315 42.0591 20.8105 42.6381 20.8105 43.3523ZM29.0156 43.3523C29.0156 44.0665 28.4366 44.6455 27.7224 44.6455H26.2954H24.8685C24.1542 44.6455 23.5753 44.0665 23.5753 43.3523C23.5753 42.6381 24.1542 42.0591 24.8685 42.0591H26.2954H27.7224C28.4366 42.0591 29.0156 42.6381 29.0156 43.3523ZM37.8451 49.1714C37.8451 50.8416 39.8645 51.6782 41.0456 50.4972L42.349 49.194C44.8261 46.7172 46.8529 44.6806 46.8529 44.6682C46.8529 44.6557 44.8261 44.6455 42.349 44.6455H41.8451C39.6359 44.6455 37.8451 46.4364 37.8451 48.6455V49.1714Z" fill="#FFDA58"/>
<path fill-rule="evenodd" clip-rule="evenodd" d="M11 31V49.8317C11 52.0408 12.7909 53.8317 15 53.8317H23.1293H31.2587C33.4678 53.8317 35.2587 52.0408 35.2587 49.8317V47.9454V46.0591C35.2587 43.85 37.0495 42.0591 39.2587 42.0591H41.145H43.0312C45.2404 42.0591 47.0312 40.2683 47.0312 38.0591V25.1137V12.1683C47.0312 9.95919 45.2404 8.16833 43.0312 8.16833H29.0156H15C12.7909 8.16833 11 9.9592 11 12.1683V31ZM34.7235 17.6667C34.7235 18.3809 34.1446 18.9599 33.4303 18.9599H29.0156H24.6009C23.8867 18.9599 23.3077 18.3809 23.3077 17.6667C23.3077 16.9525 23.8867 16.3735 24.6009 16.3735H29.0156H33.4303C34.1446 16.3735 34.7235 16.9525 34.7235 17.6667ZM39.8964 24.3556C39.8964 25.0699 39.3174 25.6488 38.6031 25.6488H29.0156H19.4281C18.7139 25.6488 18.1349 25.0699 18.1349 24.3556C18.1349 23.6414 18.7139 23.0624 19.4281 23.0624H29.0156H38.6031C39.3174 23.0624 39.8964 23.6414 39.8964 24.3556ZM39.8964 30.0636C39.8964 30.7778 39.3174 31.3568 38.6031 31.3568H29.0156H19.4281C18.7139 31.3568 18.1349 30.7778 18.1349 30.0636C18.1349 29.3493 18.7139 28.7704 19.4281 28.7704H29.0156H38.6031C39.3174 28.7704 39.8964 29.3493 39.8964 30.0636ZM39.8964 35.7715C39.8964 36.4857 39.3174 37.0647 38.6031 37.0647H29.0156H19.4281C18.7139 37.0647 18.1349 36.4857 18.1349 35.7715C18.1349 35.0573 18.7139 34.4783 19.4281 34.4783H29.0156H38.6031C39.3174 34.4783 39.8964 35.0573 39.8964 35.7715ZM20.8105 43.3523C20.8105 44.0665 20.2315 44.6455 19.5173 44.6455H19.4727H19.4281C18.7139 44.6455 18.1349 44.0665 18.1349 43.3523C18.1349 42.6381 18.7139 42.0591 19.4281 42.0591H19.4727H19.5173C20.2315 42.0591 20.8105 42.6381 20.8105 43.3523ZM29.0156 43.3523C29.0156 44.0665 28.4366 44.6455 27.7224 44.6455H26.2954H24.8685C24.1542 44.6455 23.5753 44.0665 23.5753 43.3523C23.5753 42.6381 24.1542 42.0591 24.8685 42.0591H26.2954H27.7224C28.4366 42.0591 29.0156 42.6381 29.0156 43.3523ZM37.8451 49.1714C37.8451 50.8416 39.8645 51.6782 41.0456 50.4972L42.349 49.194C44.8261 46.7172 46.8529 44.6806 46.8529 44.6682C46.8529 44.6557 44.8261 44.6455 42.349 44.6455H41.8451C39.6359 44.6455 37.8451 46.4364 37.8451 48.6455V49.1714Z" fill="#FFDA58"/>
</svg>
